# xmcd CD database file
#
# Track frame offsets:
#	183
#	24310
#	46230
#	64898
#	87213
#	113030
#	140215
#	163818
#	187748
#	199888
#	221760
#
# Disc length: 3302 seconds
#
# Revision: 1
# Processed by: cddbd v1.5PL3 Copyright (c) Steve Scherf et al.
# Submitted via: CDex 1.51
#
DISCID=9c0ce40b
DTITLE=Sambodhi Prem - Mirror Of The Sun
DYEAR=1991
DGENRE=New Age
TTITLE0=To Every Heart Alive
TTITLE1=Waltz for a Blissful Goddess
TTITLE2=Aspects of Time
TTITLE3=Mystery of the Moon
TTITLE4=Mirror of the Sun
TTITLE5=And yet... and yet...
TTITLE6=Miracle before Breakfast
TTITLE7=Kalimba Flight
TTITLE8=Zen, Light and Silence
TTITLE9=The Flower
TTITLE10=A Sudden Dance
EXTD=YEAR: 1991
EXTT0=
EXTT1=
EXTT2=
EXTT3=
EXTT4=
EXTT5=
EXTT6=
EXTT7=
EXTT8=
EXTT9=
EXTT10=
PLAYORDER=
